<?xml version="1.0" encoding="utf-8"?>
<!-- Generator: Adobe Illustrator 12.0.0, SVG Export Plug-In . SVG Version: 6.00 Build 51448)  -->
<!DOCTYPE svg PUBLIC "-//W3C//DTD SVG 1.1//EN" "http://www.w3.org/Graphics/SVG/1.1/DTD/svg11.dtd" [
	<!ENTITY ns_svg "http://www.w3.org/2000/svg">
	<!ENTITY ns_xlink "http://www.w3.org/1999/xlink">
]>
<svg  version="1.1" id="Layer_1" xmlns="&ns_svg;" xmlns:xlink="&ns_xlink;" width="60.559" height="13.816"
	 viewBox="0 0 60.559 13.816" overflow="visible" enable-background="new 0 0 60.559 13.816" xml:space="preserve">
<g enable-background="new    ">
	<path fill="#E5A822" d="M3.788,7.961l0.818,0.109C4.477,8.548,4.238,8.919,3.889,9.183S3.095,9.578,2.552,9.578
		c-0.683,0-1.224-0.21-1.625-0.63c-0.4-0.421-0.6-1.01-0.6-1.768c0-0.785,0.202-1.395,0.607-1.827
		c0.404-0.434,0.929-0.65,1.574-0.65c0.625,0,1.135,0.212,1.53,0.637c0.396,0.425,0.594,1.022,0.594,1.793
		c0,0.047-0.001,0.117-0.004,0.211H1.14C1.17,7.857,1.315,8.249,1.576,8.522S2.164,8.93,2.554,8.93c0.291,0,0.539-0.077,0.744-0.231
		C3.505,8.545,3.667,8.299,3.788,7.961z M1.187,6.696h2.609C3.761,6.302,3.662,6.007,3.497,5.81
		c-0.252-0.305-0.58-0.458-0.981-0.458c-0.364,0-0.67,0.122-0.918,0.366C1.351,5.961,1.214,6.287,1.187,6.696z"/>
	<path fill="#E5A822" d="M8.622,9.477V8.886C8.326,9.348,7.891,9.578,7.318,9.578c-0.372,0-0.714-0.103-1.026-0.308
		C5.98,9.066,5.738,8.78,5.567,8.412S5.31,7.622,5.31,7.146c0-0.466,0.078-0.889,0.233-1.268C5.698,5.499,5.93,5.208,6.24,5.006
		c0.311-0.202,0.657-0.303,1.041-0.303c0.281,0,0.531,0.06,0.751,0.179S8.43,5.156,8.568,5.347V3.031h0.789v6.445H8.622z
		 M6.122,7.147c0,0.598,0.126,1.044,0.379,1.34S7.053,8.93,7.397,8.93c0.347,0,0.642-0.142,0.885-0.424
		c0.242-0.282,0.364-0.714,0.364-1.293c0-0.639-0.124-1.106-0.371-1.405S7.724,5.36,7.362,5.36c-0.353,0-0.648,0.144-0.885,0.431
		S6.122,6.53,6.122,7.147z"/>
	<path fill="#E5A822" d="M13.667,9.477V8.788c-0.363,0.527-0.857,0.79-1.482,0.79c-0.276,0-0.533-0.053-0.772-0.158
		c-0.239-0.105-0.416-0.238-0.532-0.397c-0.116-0.16-0.197-0.355-0.244-0.587c-0.032-0.155-0.048-0.401-0.048-0.738V4.805h0.789
		v2.59c0,0.413,0.016,0.692,0.048,0.836c0.05,0.208,0.155,0.371,0.317,0.49c0.161,0.118,0.36,0.178,0.598,0.178
		s0.46-0.061,0.668-0.183c0.208-0.121,0.355-0.287,0.442-0.497c0.086-0.209,0.13-0.514,0.13-0.912V4.805h0.789v4.672H13.667z"/>
</g>
<g enable-background="new    ">
	<path fill="#798DC7" d="M34.538,9.31V4.638h0.711v0.663c0.343-0.51,0.839-0.765,1.487-0.765c0.282,0,0.541,0.051,0.777,0.151
		c0.236,0.102,0.413,0.234,0.531,0.398c0.117,0.164,0.199,0.358,0.246,0.584c0.029,0.146,0.044,0.403,0.044,0.77v2.87h-0.789V6.472
		c0-0.322-0.03-0.563-0.093-0.723c-0.062-0.16-0.172-0.287-0.328-0.383c-0.158-0.095-0.342-0.143-0.554-0.143
		c-0.339,0-0.63,0.106-0.876,0.321c-0.246,0.213-0.368,0.619-0.368,1.217V9.31H34.538z"/>
	<path fill="#798DC7" d="M39.535,9.31V4.638h0.711v0.714c0.183-0.332,0.351-0.551,0.505-0.656c0.154-0.106,0.323-0.159,0.509-0.159
		c0.268,0,0.539,0.084,0.814,0.253l-0.275,0.733c-0.193-0.11-0.387-0.166-0.58-0.166c-0.174,0-0.329,0.052-0.467,0.156
		c-0.139,0.104-0.236,0.248-0.295,0.433c-0.088,0.281-0.133,0.588-0.133,0.922V9.31H39.535z"/>
</g>
<circle fill="none" stroke="#798DC7" cx="38.009" cy="6.908" r="6.409"/>
<g enable-background="new    ">
	<path fill="#798DC7" d="M49.238,9.312V4.838h0.681v0.635c0.329-0.488,0.805-0.732,1.426-0.732c0.27,0,0.517,0.049,0.743,0.145
		c0.227,0.097,0.396,0.225,0.508,0.382c0.112,0.157,0.192,0.343,0.236,0.559c0.028,0.14,0.043,0.386,0.043,0.737v2.749h-0.756V6.594
		c0-0.309-0.03-0.54-0.089-0.692c-0.06-0.153-0.164-0.275-0.315-0.367c-0.149-0.09-0.327-0.136-0.529-0.136
		c-0.323,0-0.604,0.102-0.839,0.308C50.111,5.91,49.994,6.3,49.994,6.872v2.44H49.238z"/>
	<path fill="#798DC7" d="M56.927,9.312V8.746c-0.284,0.442-0.7,0.663-1.249,0.663c-0.357,0-0.685-0.099-0.983-0.295
		c-0.298-0.196-0.53-0.47-0.694-0.822c-0.164-0.352-0.245-0.756-0.245-1.212c0-0.446,0.073-0.851,0.223-1.214
		c0.147-0.363,0.371-0.642,0.667-0.835c0.298-0.194,0.631-0.29,0.997-0.29c0.27,0,0.509,0.057,0.72,0.171
		c0.21,0.114,0.381,0.262,0.514,0.445V3.139h0.755v6.172H56.927z M54.534,7.081c0,0.572,0.12,1,0.362,1.283s0.527,0.425,0.857,0.425
		c0.332,0,0.615-0.136,0.848-0.406c0.232-0.27,0.349-0.684,0.349-1.238c0-0.612-0.118-1.06-0.355-1.346
		c-0.236-0.287-0.527-0.43-0.874-0.43c-0.338,0-0.62,0.138-0.848,0.413S54.534,6.49,54.534,7.081z"/>
</g>
<circle fill="none" stroke="#798DC7" cx="53.65" cy="6.908" r="6.408"/>
<g enable-background="new    ">
	<path fill="#798DC7" d="M20.95,11.097V4.636h0.719v0.608c0.17-0.237,0.362-0.414,0.577-0.532c0.214-0.118,0.474-0.178,0.779-0.178
		c0.399,0,0.751,0.103,1.056,0.308s0.536,0.494,0.691,0.867c0.156,0.373,0.233,0.782,0.233,1.228c0,0.478-0.086,0.907-0.257,1.289
		c-0.172,0.382-0.421,0.675-0.749,0.878c-0.327,0.204-0.671,0.306-1.032,0.306c-0.264,0-0.501-0.056-0.711-0.167
		c-0.21-0.11-0.382-0.251-0.517-0.42v2.274H20.95z M21.661,6.998c0,0.601,0.122,1.045,0.365,1.332s0.539,0.431,0.885,0.431
		c0.353,0,0.654-0.148,0.905-0.446c0.251-0.297,0.376-0.758,0.376-1.383c0-0.595-0.123-1.04-0.368-1.336s-0.538-0.444-0.878-0.444
		c-0.337,0-0.636,0.157-0.896,0.473S21.661,6.397,21.661,6.998z"/>
</g>
<circle fill="none" stroke="#798DC7" cx="22.859" cy="6.908" r="6.409"/>
</svg>
