<?xml version="1.0" encoding="utf-8"?>
<!-- Generator: Adobe Illustrator 12.0.0, SVG Export Plug-In . SVG Version: 6.00 Build 51448)  -->
<!DOCTYPE svg PUBLIC "-//W3C//DTD SVG 1.1//EN" "http://www.w3.org/Graphics/SVG/1.1/DTD/svg11.dtd" [
	<!ENTITY ns_svg "http://www.w3.org/2000/svg">
	<!ENTITY ns_xlink "http://www.w3.org/1999/xlink">
]>
<svg  version="1.1" id="Layer_1" xmlns="&ns_svg;" xmlns:xlink="&ns_xlink;" width="44.59" height="13.818"
	 viewBox="0 0 44.59 13.818" overflow="visible" enable-background="new 0 0 44.59 13.818" xml:space="preserve">
<g enable-background="new    ">
	<path fill="#E5A822" d="M3.46,7.962l0.818,0.109C4.149,8.549,3.91,8.92,3.562,9.184C3.213,9.446,2.767,9.579,2.225,9.579
		c-0.683,0-1.224-0.21-1.625-0.63C0.199,8.528,0,7.939,0,7.182c0-0.785,0.201-1.396,0.606-1.827c0.404-0.435,0.929-0.65,1.574-0.65
		c0.625,0,1.135,0.212,1.53,0.637c0.396,0.426,0.594,1.022,0.594,1.793c0,0.048-0.001,0.117-0.004,0.211H0.813
		C0.842,7.857,0.987,8.25,1.249,8.522C1.51,8.794,1.836,8.931,2.227,8.931c0.291,0,0.539-0.077,0.744-0.231
		C3.177,8.546,3.34,8.3,3.46,7.962z M0.859,6.696h2.609C3.434,6.303,3.334,6.008,3.17,5.811C2.918,5.505,2.59,5.353,2.188,5.353
		c-0.364,0-0.67,0.122-0.918,0.365C1.022,5.962,0.886,6.288,0.859,6.696z"/>
	<path fill="#E5A822" d="M8.295,9.478V8.886C7.999,9.349,7.563,9.579,6.989,9.579c-0.372,0-0.714-0.103-1.025-0.308
		C5.651,9.066,5.41,8.78,5.238,8.413s-0.257-0.79-0.257-1.267c0-0.466,0.078-0.89,0.233-1.269s0.388-0.67,0.698-0.872
		c0.311-0.201,0.656-0.303,1.041-0.303c0.28,0,0.53,0.061,0.751,0.179c0.22,0.119,0.396,0.274,0.534,0.466V3.032h0.789v6.445H8.295z
		 M5.795,7.147c0,0.598,0.126,1.044,0.379,1.34s0.551,0.443,0.896,0.443c0.348,0,0.643-0.143,0.886-0.425
		c0.241-0.281,0.363-0.714,0.363-1.293c0-0.639-0.124-1.105-0.371-1.404C7.7,5.509,7.396,5.36,7.034,5.36
		c-0.353,0-0.647,0.144-0.885,0.431C5.913,6.078,5.795,6.53,5.795,7.147z"/>
	<path fill="#E5A822" d="M13.339,9.478V8.789c-0.363,0.527-0.857,0.79-1.482,0.79c-0.275,0-0.533-0.053-0.771-0.158
		c-0.239-0.104-0.416-0.237-0.532-0.396c-0.116-0.16-0.197-0.355-0.244-0.587c-0.032-0.155-0.048-0.401-0.048-0.738V4.806h0.789
		v2.59c0,0.413,0.016,0.691,0.048,0.836c0.05,0.208,0.155,0.371,0.317,0.49c0.16,0.117,0.359,0.178,0.598,0.178
		s0.46-0.062,0.668-0.184c0.208-0.121,0.354-0.286,0.442-0.497c0.086-0.209,0.13-0.514,0.13-0.911V4.806h0.789v4.672H13.339z"/>
</g>
<g enable-background="new    ">
	<path fill="#798DC7" d="M34.21,9.311V4.639h0.711v0.662c0.343-0.51,0.839-0.765,1.486-0.765c0.282,0,0.541,0.051,0.777,0.151
		c0.236,0.102,0.413,0.233,0.531,0.397c0.117,0.164,0.199,0.358,0.246,0.584c0.028,0.146,0.044,0.403,0.044,0.771v2.87h-0.789V6.473
		c0-0.322-0.03-0.563-0.093-0.724s-0.173-0.287-0.328-0.383c-0.158-0.095-0.342-0.143-0.555-0.143c-0.339,0-0.63,0.105-0.876,0.32
		c-0.245,0.213-0.367,0.619-0.367,1.217V9.31L34.21,9.311L34.21,9.311z"/>
	<path fill="#798DC7" d="M39.207,9.311V4.639h0.711v0.714c0.183-0.332,0.351-0.552,0.505-0.656c0.153-0.106,0.323-0.159,0.509-0.159
		c0.268,0,0.539,0.084,0.814,0.253l-0.275,0.733c-0.193-0.11-0.387-0.166-0.58-0.166c-0.174,0-0.329,0.052-0.467,0.156
		c-0.14,0.104-0.236,0.247-0.295,0.433c-0.088,0.281-0.133,0.588-0.133,0.922v2.442H39.207z"/>
</g>
<circle fill="none" stroke="#798DC7" cx="37.681" cy="6.909" r="6.409"/>
<g enable-background="new    ">
	<path fill="#798DC7" d="M20.622,11.098V4.636h0.719v0.608c0.17-0.237,0.362-0.414,0.577-0.532c0.214-0.118,0.474-0.178,0.778-0.178
		c0.399,0,0.751,0.103,1.057,0.308c0.305,0.205,0.536,0.494,0.69,0.867c0.156,0.373,0.233,0.782,0.233,1.229
		c0,0.478-0.086,0.906-0.257,1.289c-0.172,0.382-0.421,0.675-0.749,0.878C23.344,9.309,23,9.41,22.639,9.41
		c-0.264,0-0.501-0.056-0.711-0.167c-0.21-0.11-0.382-0.251-0.518-0.42v2.274H20.622z M21.333,6.999
		c0,0.602,0.122,1.045,0.364,1.332c0.243,0.287,0.539,0.431,0.886,0.431c0.353,0,0.653-0.147,0.904-0.445
		c0.251-0.297,0.376-0.758,0.376-1.383c0-0.596-0.123-1.04-0.367-1.336c-0.245-0.297-0.538-0.444-0.879-0.444
		c-0.337,0-0.636,0.157-0.896,0.473C21.462,5.942,21.333,6.397,21.333,6.999z"/>
</g>
<circle fill="none" stroke="#798DC7" cx="22.53" cy="6.909" r="6.409"/>
</svg>
