<?xml version="1.0" encoding="utf-8"?>
<!-- Generator: Adobe Illustrator 12.0.0, SVG Export Plug-In . SVG Version: 6.00 Build 51448)  -->
<!DOCTYPE svg PUBLIC "-//W3C//DTD SVG 1.1//EN" "http://www.w3.org/Graphics/SVG/1.1/DTD/svg11.dtd" [
	<!ENTITY ns_svg "http://www.w3.org/2000/svg">
	<!ENTITY ns_xlink "http://www.w3.org/1999/xlink">
]>
<svg  version="1.1" id="Layer_1" xmlns="&ns_svg;" xmlns:xlink="&ns_xlink;" width="29.935" height="13.818"
	 viewBox="0 0 29.935 13.818" overflow="visible" enable-background="new 0 0 29.935 13.818" xml:space="preserve">
<g enable-background="new    ">
	<path fill="#E5A822" d="M3.46,7.962l0.818,0.109C4.149,8.549,3.91,8.92,3.562,9.184C3.213,9.446,2.767,9.579,2.225,9.579
		c-0.683,0-1.224-0.21-1.625-0.63C0.199,8.528,0,7.939,0,7.182c0-0.785,0.201-1.396,0.606-1.827c0.404-0.435,0.929-0.65,1.574-0.65
		c0.625,0,1.135,0.212,1.53,0.637c0.396,0.426,0.594,1.022,0.594,1.793c0,0.048-0.001,0.117-0.004,0.211H0.813
		C0.842,7.857,0.987,8.25,1.249,8.522C1.51,8.794,1.836,8.931,2.227,8.931c0.291,0,0.539-0.077,0.744-0.231
		C3.177,8.546,3.34,8.3,3.46,7.962z M0.859,6.696h2.609C3.434,6.303,3.334,6.008,3.17,5.811C2.918,5.505,2.59,5.353,2.188,5.353
		c-0.364,0-0.67,0.122-0.918,0.365C1.022,5.962,0.886,6.288,0.859,6.696z"/>
	<path fill="#E5A822" d="M8.295,9.478V8.886C7.999,9.349,7.563,9.579,6.989,9.579c-0.372,0-0.714-0.103-1.025-0.308
		C5.651,9.066,5.41,8.78,5.238,8.413s-0.257-0.79-0.257-1.267c0-0.466,0.078-0.89,0.233-1.269s0.388-0.67,0.698-0.872
		c0.311-0.201,0.656-0.303,1.041-0.303c0.28,0,0.53,0.061,0.751,0.179c0.22,0.119,0.396,0.274,0.534,0.466V3.032h0.789v6.445H8.295z
		 M5.795,7.147c0,0.598,0.126,1.044,0.379,1.34s0.551,0.443,0.896,0.443c0.348,0,0.643-0.143,0.886-0.425
		c0.241-0.281,0.363-0.714,0.363-1.293c0-0.639-0.124-1.105-0.371-1.404C7.7,5.509,7.396,5.36,7.034,5.36
		c-0.353,0-0.647,0.144-0.885,0.431C5.913,6.078,5.795,6.53,5.795,7.147z"/>
	<path fill="#E5A822" d="M13.339,9.478V8.789c-0.363,0.527-0.857,0.79-1.482,0.79c-0.275,0-0.533-0.053-0.771-0.158
		c-0.239-0.104-0.416-0.237-0.532-0.396c-0.116-0.16-0.197-0.355-0.244-0.587c-0.032-0.155-0.048-0.401-0.048-0.738V4.806h0.789
		v2.59c0,0.413,0.016,0.691,0.048,0.836c0.05,0.208,0.155,0.371,0.317,0.49c0.16,0.117,0.359,0.178,0.598,0.178
		s0.46-0.062,0.668-0.184c0.208-0.121,0.354-0.286,0.442-0.497c0.086-0.209,0.13-0.514,0.13-0.911V4.806h0.789v4.672H13.339z"/>
</g>
<g enable-background="new    ">
	<path fill="#798DC7" d="M18.865,9.311V4.639h0.711v0.662c0.344-0.51,0.84-0.765,1.488-0.765c0.282,0,0.541,0.051,0.777,0.151
		c0.236,0.102,0.413,0.233,0.531,0.397c0.116,0.164,0.199,0.358,0.247,0.584c0.028,0.146,0.044,0.403,0.044,0.771v2.87h-0.789V6.473
		c0-0.322-0.031-0.563-0.094-0.724c-0.062-0.16-0.171-0.287-0.328-0.383c-0.157-0.095-0.343-0.143-0.554-0.143
		c-0.338,0-0.63,0.105-0.876,0.32c-0.246,0.213-0.368,0.619-0.368,1.217V9.31L18.865,9.311L18.865,9.311z"/>
	<path fill="#798DC7" d="M26.91,7.6l0.781,0.108c-0.085,0.533-0.303,0.95-0.65,1.251c-0.351,0.302-0.778,0.452-1.286,0.452
		c-0.639,0-1.149-0.209-1.537-0.626c-0.387-0.417-0.58-1.016-0.58-1.794c0-0.504,0.082-0.944,0.249-1.322
		c0.167-0.377,0.42-0.661,0.76-0.85c0.341-0.188,0.71-0.283,1.11-0.283c0.505,0,0.918,0.128,1.239,0.385
		c0.32,0.256,0.526,0.62,0.617,1.093l-0.766,0.117c-0.073-0.313-0.203-0.55-0.388-0.708c-0.187-0.157-0.409-0.236-0.672-0.236
		c-0.397,0-0.721,0.143-0.969,0.429C24.571,5.9,24.448,6.353,24.448,6.97c0,0.629,0.119,1.083,0.357,1.367
		c0.239,0.285,0.551,0.428,0.936,0.428c0.31,0,0.567-0.096,0.773-0.285C26.723,8.288,26.854,7.995,26.91,7.6z"/>
</g>
<circle fill="none" stroke="#798DC7" cx="23.025" cy="6.909" r="6.409"/>
</svg>
