<?xml version="1.0" encoding="utf-8"?>
<!-- Generator: Adobe Illustrator 12.0.0, SVG Export Plug-In . SVG Version: 6.00 Build 51448)  -->
<!DOCTYPE svg PUBLIC "-//W3C//DTD SVG 1.1//EN" "http://www.w3.org/Graphics/SVG/1.1/DTD/svg11.dtd" [
	<!ENTITY ns_svg "http://www.w3.org/2000/svg">
	<!ENTITY ns_xlink "http://www.w3.org/1999/xlink">
]>
<svg  version="1.1" id="Layer_1" xmlns="&ns_svg;" xmlns:xlink="&ns_xlink;" width="45.559" height="13.816"
	 viewBox="0 0 45.559 13.816" overflow="visible" enable-background="new 0 0 45.559 13.816" xml:space="preserve">
<g enable-background="new    ">
	<path fill="#E5A822" d="M3.788,7.961l0.818,0.109C4.477,8.548,4.238,8.919,3.889,9.183S3.095,9.578,2.552,9.578
		c-0.683,0-1.224-0.21-1.625-0.63c-0.4-0.421-0.6-1.01-0.6-1.768c0-0.785,0.202-1.395,0.607-1.827
		c0.404-0.434,0.929-0.65,1.574-0.65c0.625,0,1.135,0.212,1.53,0.637c0.396,0.425,0.594,1.022,0.594,1.793
		c0,0.047-0.001,0.117-0.004,0.211H1.14C1.17,7.857,1.315,8.249,1.576,8.522S2.164,8.93,2.554,8.93c0.291,0,0.539-0.077,0.744-0.231
		C3.505,8.545,3.667,8.299,3.788,7.961z M1.187,6.696h2.609C3.761,6.302,3.662,6.007,3.497,5.81
		c-0.252-0.305-0.58-0.458-0.981-0.458c-0.364,0-0.67,0.122-0.918,0.366C1.351,5.961,1.214,6.287,1.187,6.696z"/>
	<path fill="#E5A822" d="M8.622,9.477V8.886C8.326,9.348,7.891,9.578,7.318,9.578c-0.372,0-0.714-0.103-1.026-0.308
		C5.98,9.066,5.738,8.78,5.567,8.412S5.31,7.622,5.31,7.146c0-0.466,0.078-0.889,0.233-1.268C5.698,5.499,5.93,5.208,6.24,5.006
		c0.311-0.202,0.657-0.303,1.041-0.303c0.281,0,0.531,0.06,0.751,0.179S8.43,5.156,8.568,5.347V3.031h0.789v6.445H8.622z
		 M6.122,7.147c0,0.598,0.126,1.044,0.379,1.34S7.053,8.93,7.397,8.93c0.347,0,0.642-0.142,0.885-0.424
		c0.242-0.282,0.364-0.714,0.364-1.293c0-0.639-0.124-1.106-0.371-1.405S7.724,5.36,7.362,5.36c-0.353,0-0.648,0.144-0.885,0.431
		S6.122,6.53,6.122,7.147z"/>
	<path fill="#E5A822" d="M13.667,9.477V8.788c-0.363,0.527-0.857,0.79-1.482,0.79c-0.276,0-0.533-0.053-0.772-0.158
		c-0.239-0.105-0.416-0.238-0.532-0.397c-0.116-0.16-0.197-0.355-0.244-0.587c-0.032-0.155-0.048-0.401-0.048-0.738V4.805h0.789
		v2.59c0,0.413,0.016,0.692,0.048,0.836c0.05,0.208,0.155,0.371,0.317,0.49c0.161,0.118,0.36,0.178,0.598,0.178
		s0.46-0.061,0.668-0.183c0.208-0.121,0.355-0.287,0.442-0.497c0.086-0.209,0.13-0.514,0.13-0.912V4.805h0.789v4.672H13.667z"/>
</g>
<g enable-background="new    ">
	<path fill="#798DC7" d="M19.193,9.31V4.638h0.711v0.663c0.343-0.51,0.839-0.765,1.488-0.765c0.282,0,0.541,0.051,0.777,0.151
		c0.236,0.102,0.413,0.234,0.531,0.398c0.117,0.164,0.2,0.358,0.247,0.584c0.029,0.146,0.044,0.403,0.044,0.77v2.87h-0.789V6.472
		c0-0.322-0.031-0.563-0.093-0.723c-0.062-0.16-0.171-0.287-0.329-0.383c-0.157-0.095-0.342-0.143-0.553-0.143
		c-0.338,0-0.63,0.106-0.876,0.321c-0.246,0.213-0.368,0.619-0.368,1.217V9.31H19.193z"/>
	<path fill="#798DC7" d="M27.238,7.599l0.781,0.109c-0.085,0.533-0.303,0.95-0.651,1.251c-0.35,0.302-0.778,0.452-1.286,0.452
		c-0.638,0-1.149-0.209-1.537-0.626c-0.387-0.417-0.58-1.016-0.58-1.794c0-0.504,0.082-0.944,0.249-1.322
		c0.167-0.377,0.42-0.661,0.76-0.85c0.341-0.188,0.71-0.283,1.11-0.283c0.505,0,0.918,0.128,1.239,0.385
		c0.321,0.256,0.527,0.62,0.618,1.092L27.176,6.13c-0.073-0.313-0.203-0.55-0.388-0.708c-0.186-0.158-0.409-0.237-0.672-0.237
		c-0.397,0-0.72,0.143-0.968,0.429c-0.248,0.285-0.371,0.737-0.371,1.355c0,0.628,0.119,1.083,0.357,1.367
		c0.239,0.285,0.551,0.427,0.936,0.427c0.309,0,0.567-0.095,0.773-0.285C27.051,8.287,27.182,7.994,27.238,7.599z"/>
</g>
<circle fill="none" stroke="#798DC7" cx="23.354" cy="6.908" r="6.409"/>
<g enable-background="new    ">
	<path fill="#798DC7" d="M34.238,9.308V4.636h0.711v0.663c0.344-0.51,0.84-0.765,1.488-0.765c0.281,0,0.54,0.051,0.776,0.151
		c0.236,0.102,0.413,0.234,0.53,0.398s0.2,0.358,0.247,0.584c0.029,0.146,0.044,0.403,0.044,0.77v2.87h-0.789V6.47
		c0-0.322-0.031-0.563-0.093-0.723c-0.062-0.16-0.171-0.287-0.329-0.383c-0.156-0.095-0.342-0.143-0.553-0.143
		c-0.338,0-0.631,0.106-0.876,0.321c-0.245,0.213-0.368,0.619-0.368,1.217v2.548H34.238z"/>
	<path fill="#798DC7" d="M42.267,9.308V8.717c-0.297,0.462-0.731,0.692-1.305,0.692c-0.373,0-0.715-0.103-1.026-0.308
		s-0.554-0.491-0.726-0.858c-0.171-0.367-0.256-0.79-0.256-1.267c0-0.466,0.077-0.889,0.232-1.268
		c0.154-0.379,0.388-0.67,0.697-0.872c0.311-0.202,0.658-0.303,1.041-0.303c0.281,0,0.531,0.06,0.751,0.179s0.397,0.273,0.536,0.465
		V2.863h0.789v6.445H42.267z M39.767,6.978c0,0.598,0.126,1.044,0.379,1.34s0.551,0.443,0.896,0.443
		c0.347,0,0.642-0.142,0.885-0.424c0.242-0.282,0.364-0.714,0.364-1.293c0-0.639-0.124-1.106-0.371-1.405s-0.551-0.448-0.913-0.448
		c-0.353,0-0.647,0.144-0.885,0.431S39.767,6.361,39.767,6.978z"/>
</g>
<circle fill="none" stroke="#798DC7" cx="38.65" cy="6.908" r="6.408"/>
</svg>
